<svg id="Layer_1" data-name="Layer 1" xmlns="http://www.w3.org/2000/svg" viewBox="0 0 727.8 71.3"><defs><style>.cls-1{fill:#242428;}</style></defs><path class="cls-1" d="M11,68.9v.22A1.08,1.08,0,0,1,9.92,70.2H1.08A1.08,1.08,0,0,1,0,69.12V1.27A1.08,1.08,0,0,1,1.08.19H9.92A1.08,1.08,0,0,1,11,1.27V20a1.08,1.08,0,0,0,1.72.86A18.26,18.26,0,0,1,23.3,17.89c13.3,0,23.9,10,23.9,26.71,0,16.5-10.6,26.5-23.8,26.5-4.74,0-8.33-1.21-10.68-3.06A1.07,1.07,0,0,0,11,68.9ZM36,44.6c0-10.81-7.3-16.11-14-16.11-4.95,0-8.58,1.79-10.8,4.92A1.1,1.1,0,0,0,11,34V54.51a1.11,1.11,0,0,0,.14.54C13.28,58.87,17.4,60.6,22,60.6,29.7,60.6,36,54.4,36,44.6Z"/><path class="cls-1" d="M62.48,18.79h8.84a1.08,1.08,0,0,1,1.08,1.08v2.4a1.08,1.08,0,0,0,1.89.72,16.46,16.46,0,0,1,11.81-4.7c4.06,0,6.92.77,9.77,2.76a1.09,1.09,0,0,1,.33,1.36L92,30.75a1.06,1.06,0,0,1-1.46.46A11.19,11.19,0,0,0,85.2,30c-5.88,0-11.46,3.58-12.79,12.11,0,.06,0,.13,0,.19V69.12a1.08,1.08,0,0,1-1.08,1.08H62.48a1.08,1.08,0,0,1-1.08-1.08V19.87A1.08,1.08,0,0,1,62.48,18.79Z"/><path class="cls-1" d="M107.88,18.79h8.94a1.08,1.08,0,0,1,1.08,1.08V69.12a1.08,1.08,0,0,1-1.08,1.08h-8.94a1.08,1.08,0,0,1-1.08-1.08V19.87A1.08,1.08,0,0,1,107.88,18.79Z"/><path class="cls-1" d="M132.1,44.5c0-15.51,11.2-26.71,25.4-26.71,7.74,0,13.35,2.77,17.23,7a1.06,1.06,0,0,1,0,1.47l-6.1,6.19a1.06,1.06,0,0,1-1.51,0,13.25,13.25,0,0,0-9.58-3.72c-8,0-14.2,6.59-14.2,15.9,0,8.9,6.2,15.7,14.2,15.7a13.48,13.48,0,0,0,9.58-3.75,1.06,1.06,0,0,1,1.49,0l6,6.17a1.08,1.08,0,0,1,0,1.49c-4.19,4.34-9.43,6.85-17.1,6.85C143.4,71.1,132.1,60.1,132.1,44.5Z"/><path class="cls-1" d="M190.17.19H199a1.08,1.08,0,0,1,1.08,1.08v35a1.08,1.08,0,0,0,1.84.77l17.94-18a1.12,1.12,0,0,1,.77-.32h11.56a1.08,1.08,0,0,1,.76,1.84L214.73,39a1.09,1.09,0,0,0-.12,1.37L234.22,68.5a1.08,1.08,0,0,1-.88,1.7H222.66a1.07,1.07,0,0,1-.88-.46L206.84,48.65a1.07,1.07,0,0,0-1.64-.14l-4.79,4.87a1.07,1.07,0,0,0-.31.76v15A1.08,1.08,0,0,1,199,70.2h-8.85a1.08,1.08,0,0,1-1.07-1.08V1.27A1.08,1.08,0,0,1,190.17.19Z"/><path class="cls-1" d="M241,61.82l5.06-6.4a1.07,1.07,0,0,1,1.55-.15,23.45,23.45,0,0,0,15.28,6c5.6,0,8.7-2,8.7-5.1,0-2.6-2-3.9-4.6-4.8l-12.8-4.3c-7.3-2.4-11.6-7.1-11.6-13.6,0-9.81,8.7-15.81,19.8-15.81,7.18,0,14.27,2.11,19.78,7.3a1.08,1.08,0,0,1,.07,1.47l-5.19,6.14a1.1,1.1,0,0,1-1.56.13,20.45,20.45,0,0,0-13.7-5c-4.9,0-8.4,2.09-8.4,5.09,0,2.31,1.7,3.41,4.2,4.21l12.5,4.2c7.7,2.6,12.5,6.9,12.5,14.4,0,9.7-7.7,15.7-19.9,15.7-7.68,0-15.82-2.68-21.59-8A1.08,1.08,0,0,1,241,61.82Z"/><path class="cls-1" d="M367.64,58.79l-6.11,6.11a1.1,1.1,0,0,1-1.53,0L347,51.85a1.06,1.06,0,0,0-1.51,0L332.4,64.9a1.1,1.1,0,0,1-1.53,0l-6.12-6.12a1.09,1.09,0,0,1,0-1.53l13-13a1.07,1.07,0,0,0,0-1.52l-13-13a1.08,1.08,0,0,1,0-1.53l6.1-6.11a1.08,1.08,0,0,1,1.53,0l13.05,13.05a1.08,1.08,0,0,0,1.51,0L360,22a1.07,1.07,0,0,1,1.52,0l6.12,6.13a1.07,1.07,0,0,1,0,1.52L354.59,42.7a1.08,1.08,0,0,0,0,1.51l13.05,13A1.08,1.08,0,0,1,367.64,58.79Z"/><path class="cls-1" d="M423.5,68.9v.22a1.09,1.09,0,0,1-1.08,1.08h-8.85a1.08,1.08,0,0,1-1.07-1.08V1.27A1.08,1.08,0,0,1,413.57.19h8.85a1.09,1.09,0,0,1,1.08,1.08V20a1.07,1.07,0,0,0,1.71.85,18.29,18.29,0,0,1,10.59-2.94c13.3,0,23.9,10,23.9,26.71,0,16.5-10.6,26.5-23.8,26.5-4.74,0-8.34-1.21-10.69-3.06A1.07,1.07,0,0,0,423.5,68.9Zm25-24.3c0-10.81-7.3-16.11-14-16.11-4.95,0-8.58,1.79-10.81,4.92a1.09,1.09,0,0,0-.19.63V54.51a1.11,1.11,0,0,0,.13.54c2.15,3.82,6.27,5.55,10.87,5.55C442.2,60.6,448.5,54.4,448.5,44.6Z"/><path class="cls-1" d="M475,18.79h8.85a1.09,1.09,0,0,1,1.08,1.08v2.4a1.08,1.08,0,0,0,1.88.72,16.5,16.5,0,0,1,11.82-4.7c4,0,6.92.77,9.77,2.76a1.07,1.07,0,0,1,.32,1.36l-4.17,8.34a1.06,1.06,0,0,1-1.46.46A11.22,11.22,0,0,0,497.7,30c-5.88,0-11.46,3.58-12.79,12.11a1.21,1.21,0,0,0,0,.19V69.12a1.09,1.09,0,0,1-1.08,1.08H475a1.08,1.08,0,0,1-1.07-1.08V19.87A1.08,1.08,0,0,1,475,18.79Z"/><path class="cls-1" d="M515.29,44.6c0-16.31,12.21-26.71,24.31-26.71,4.24,0,7.68.93,10.12,2.83a1.09,1.09,0,0,0,1.78-.82v0a1.08,1.08,0,0,1,1.07-1.08h8.85a1.08,1.08,0,0,1,1.08,1.08V69.12a1.08,1.08,0,0,1-1.08,1.08h-8.85a1.08,1.08,0,0,1-1.07-1.08V69a1.07,1.07,0,0,0-1.74-.84C547.47,70,544,71.2,539.3,71.2,526.6,71.2,515.29,60.7,515.29,44.6Zm36.21,9.72V34.42a1.16,1.16,0,0,0-.17-.6c-2-3.15-5.59-5.33-10.93-5.33-6.5,0-13.9,5.51-13.9,16.11,0,9.6,6.5,16,14,16,4.8,0,8.83-1.92,10.87-5.76A1.18,1.18,0,0,0,551.5,54.32Z"/><path class="cls-1" d="M576.7,44.5c0-15.51,11.2-26.71,25.4-26.71,7.74,0,13.34,2.77,17.23,7a1.07,1.07,0,0,1,0,1.47l-6.11,6.19a1.05,1.05,0,0,1-1.5,0,13.25,13.25,0,0,0-9.58-3.72c-8,0-14.2,6.59-14.2,15.9,0,8.9,6.2,15.7,14.2,15.7a13.47,13.47,0,0,0,9.57-3.75,1.07,1.07,0,0,1,1.5,0l6,6.17a1.08,1.08,0,0,1,0,1.49c-4.19,4.34-9.44,6.85-17.1,6.85C588,71.1,576.7,60.1,576.7,44.5Z"/><path class="cls-1" d="M628.9,44.2c0-15.31,11-26.41,24-26.41,15,0,23.8,11.91,23.8,25.31v4a1.08,1.08,0,0,1-1.08,1.08H641.5a1.08,1.08,0,0,0-1.06,1.32A14.62,14.62,0,0,0,654.5,60.4,15,15,0,0,0,665,56.59a1.06,1.06,0,0,1,1.53.06l5.67,6.3a1.06,1.06,0,0,1,0,1.47C668.08,68.5,661.88,71,654.7,71,640.3,71,628.9,60.3,628.9,44.2Zm23.9-16.31a12.69,12.69,0,0,0-12.27,9.22,1.09,1.09,0,0,0,1,1.39H664.2a1.08,1.08,0,0,0,1-1.33C664,32,660,27.89,652.8,27.89Z"/><path class="cls-1" d="M686.21,61.82l5.06-6.4a1.07,1.07,0,0,1,1.55-.15,23.45,23.45,0,0,0,15.28,6c5.6,0,8.7-2,8.7-5.1,0-2.6-2-3.9-4.6-4.8l-12.8-4.3c-7.3-2.4-11.6-7.1-11.6-13.6,0-9.81,8.7-15.81,19.8-15.81,7.18,0,14.27,2.11,19.78,7.3a1.08,1.08,0,0,1,.07,1.47l-5.19,6.14a1.1,1.1,0,0,1-1.56.13,20.45,20.45,0,0,0-13.7-5c-4.9,0-8.4,2.09-8.4,5.09,0,2.31,1.7,3.41,4.2,4.21l12.5,4.2c7.7,2.6,12.5,6.9,12.5,14.4,0,9.7-7.7,15.7-19.9,15.7-7.68,0-15.82-2.68-21.59-8A1.08,1.08,0,0,1,686.21,61.82Z"/><path class="cls-1" d="M108,0h8.94A1.08,1.08,0,0,1,118,1.08V10a1.08,1.08,0,0,1-1.08,1.08H108A1.08,1.08,0,0,1,106.91,10V1.08A1.08,1.08,0,0,1,108,0Z"/></svg>